<svg xmlns="http://www.w3.org/2000/svg" viewBox="0 0 512 512"><path clip-rule="evenodd" d="M27 140v177c0 26 21 47 47 47h46c3 0 6 3 6 6v68l73-72c1-2 3-2 4-2h152c26 0 47-21 47-47v-80l-38 52-2 1-60 30a6 6 0 0 1-6 0c-2-2-3-4-2-6l7-68 1-3 93-128c-9-14-23-22-40-22H74c-26 0-47 21-47 47m321 144-41 21 5-47zm118-152L358 277l-43-31 106-146zm-34 9-66 92a6 6 0 0 1-9-8l66-91a6 6 0 1 1 9 7m-4-51 45 32 9-12c5-7 3-16-4-21l-20-15c-3-2-7-3-11-3-4 1-8 3-10 7zM176 194v-29a6 6 0 0 1 12 0v29a6 6 0 1 1-12 0m62 0v-29a6 6 0 1 1 12 0v29a6 6 0 0 1-12 0m-86 44a6 6 0 1 1 11-6 56 56 0 0 0 99 0 6 6 0 1 1 11 6 68 68 0 0 1-121 0" fill-rule="evenodd"/></svg>