<?xml version="1.0" encoding="UTF-8"?> <svg xmlns="http://www.w3.org/2000/svg" id="Layer_1" viewBox="0 0 512 512"><path clip-rule="evenodd" d="m26.74 139.88v177.03c0 25.87 21.05 46.92 46.93 46.92h46.3c3.31 0 6 2.69 6 6v67.79l73.18-72.07c1.12-1.1 2.63-1.72 4.21-1.72h152.1c25.88 0 46.93-21.05 46.93-46.92v-79.68l-38.27 51.3h-.01c-.55.73-1.26 1.35-2.11 1.78l-59.63 29.83c-.85.43-1.77.64-2.69.64-1.2 0-2.39-.36-3.41-1.07-1.8-1.25-2.78-3.38-2.56-5.56l7.09-67.94c.11-1.06.5-2.06 1.11-2.9l93.17-128.47c-8.61-13.58-23.47-21.88-39.62-21.88h-281.79c-25.88 0-46.93 21.05-46.93 46.92zm321.05 144.12-41.01 20.51 4.88-46.72zm118.05-151.92-107.8 144.53-42.89-31.11 105.84-145.95zm-33.52 9.32-66.09 91.12c-1.18 1.62-3.01 2.48-4.86 2.48-1.23 0-2.46-.37-3.52-1.14-2.68-1.95-3.28-5.7-1.34-8.38l66.1-91.12c1.94-2.69 5.7-3.28 8.38-1.34 2.68 1.95 3.28 5.7 1.33 8.38zm-4.28-51.56 44.91 32.58 8.92-12.3c4.92-6.78 3.4-16.29-3.38-21.21l-20.32-14.74c-3.27-2.37-7.28-3.32-11.3-2.68-4.03.64-7.55 2.79-9.92 6.06zm-252.39 103.73v-28.75c0-3.31 2.69-6 6-6 3.32 0 6 2.69 6 6v28.75c0 3.31-2.68 6-6 6-3.31 0-6-2.69-6-6zm62.01 0v-28.75c0-3.31 2.68-6 6-6 3.31 0 6 2.69 6 6v28.75c0 3.31-2.69 6-6 6-3.32 0-6-2.69-6-6zm-85.23 44.24c-1.52-2.94-.37-6.56 2.57-8.08 2.95-1.53 6.57-.38 8.09 2.57 9.63 18.61 28.63 30.17 49.57 30.17s39.93-11.56 49.56-30.17c1.53-2.95 5.15-4.1 8.09-2.57 2.94 1.52 4.09 5.14 2.57 8.08-11.7 22.61-34.78 36.66-60.22 36.66-25.45 0-48.52-14.05-60.23-36.66z" fill-rule="evenodd"></path></svg> 